<?xml version="1.0" encoding="utf-8"?>
<!-- Generator: Adobe Illustrator 22.0.1, SVG Export Plug-In . SVG Version: 6.00 Build 0)  -->
<svg version="1.1" id="Layer_1" xmlns:ev="http://www.w3.org/2001/xml-events"
	 xmlns="http://www.w3.org/2000/svg" xmlns:xlink="http://www.w3.org/1999/xlink" x="0px" y="0px" viewBox="0 0 734.3 588.3"
	 style="enable-background:new 0 0 734.3 588.3;" xml:space="preserve">
<style type="text/css">
	.st0{fill:#171820;}
	.st1{fill:#E2761B;stroke:#E2761B;stroke-linecap:round;stroke-linejoin:round;}
	.st2{fill:#E4761B;stroke:#E4761B;stroke-linecap:round;stroke-linejoin:round;}
	.st3{fill:#D7C1B3;stroke:#D7C1B3;stroke-linecap:round;stroke-linejoin:round;}
	.st4{fill:#233447;stroke:#233447;stroke-linecap:round;stroke-linejoin:round;}
	.st5{fill:#CD6116;stroke:#CD6116;stroke-linecap:round;stroke-linejoin:round;}
	.st6{fill:#E4751F;stroke:#E4751F;stroke-linecap:round;stroke-linejoin:round;}
	.st7{fill:#F6851B;stroke:#F6851B;stroke-linecap:round;stroke-linejoin:round;}
	.st8{fill:#C0AD9E;stroke:#C0AD9E;stroke-linecap:round;stroke-linejoin:round;}
	.st9{fill:#161616;stroke:#161616;stroke-linecap:round;stroke-linejoin:round;}
	.st10{fill:#763D16;stroke:#763D16;stroke-linecap:round;stroke-linejoin:round;}
</style>
<g>
	<path class="st0" d="M203.4,395.1l13.6,36.3h0.2l13.6-36.3H241v47.3h-7.9v-16.1l0.8-20.5h-0.2l-14,36.6h-5.3l-14-36.5h-0.2
		l0.8,20.4v16.1h-7.9v-47.3H203.4z"/>
	<path class="st0" d="M279.9,421.1h-20.7V436h24v6.3h-31.9V395H283v6.3h-23.8v13.3h20.7L279.9,421.1L279.9,421.1z"/>
	<path class="st0" d="M322.9,401.5h-14.3v40.9h-7.9v-40.9h-14.3v-6.3h36.4L322.9,401.5L322.9,401.5z"/>
	<path class="st0" d="M351.2,431.3h-18.5l-3.8,11h-8l17.4-47.3h7.5l17.2,47.3h-8L351.2,431.3z M335,424.8h14l-6.8-20.2H342
		L335,424.8z"/>
	<path class="st0" d="M378.7,395.1l13.6,36.3h0.2l13.6-36.3h10.2v47.3h-7.9v-16.1l0.8-20.5H409l-14,36.6h-5.3l-14-36.5h-0.2
		l0.8,20.4v16.1h-7.9v-47.3H378.7z"/>
	<path class="st0" d="M452.3,431.3h-18.5l-3.8,11h-8l17.4-47.3h7.5l17.2,47.3h-8L452.3,431.3z M436,424.8h14l-6.8-20.2H443
		L436,424.8z"/>
	<path class="st0" d="M495.1,430.2c0-2-0.7-3.6-2.2-4.8c-1.5-1.2-4-2.4-7.7-3.4c-5.3-1.4-9.3-3.2-12.2-5.5c-2.8-2.3-4.3-5.3-4.3-9
		c0-3.8,1.6-6.9,4.7-9.4s7.2-3.7,12.2-3.7c5.2,0,9.4,1.4,12.5,4.2c3.1,2.8,4.7,6.2,4.6,10.1l-0.1,0.2H495c0-2.4-0.8-4.4-2.5-5.9
		s-4-2.3-7-2.3c-2.9,0-5.1,0.6-6.6,1.9s-2.3,2.9-2.3,4.9c0,1.8,0.8,3.3,2.5,4.5s4.5,2.3,8.3,3.4c5.1,1.4,8.9,3.2,11.6,5.6
		s4,5.5,4,9.2c0,3.9-1.6,7.1-4.7,9.4s-7.3,3.5-12.4,3.5c-4.9,0-9.3-1.3-13-3.9s-5.5-6.2-5.4-10.8l0.1-0.2h7.6c0,2.9,1,5,3,6.4
		s4.6,2.1,7.8,2.1c2.9,0,5.2-0.6,6.8-1.8C494.3,433.8,495.1,432.2,495.1,430.2z"/>
	<path class="st0" d="M524.6,421.9h-5.5v20.4h-7.9V395h7.9v20h4.5l14.8-20h9.3l-17.2,22.6l18.5,24.7h-9.6L524.6,421.9z"/>
</g>
<polygon class="st1" points="486,116.4 386.4,190.3 404.9,146.7 "/>
<g>
	<polygon class="st2" points="256.3,116.4 355,191 337.4,146.7 	"/>
	<polygon class="st2" points="450.2,287.7 423.7,328.3 480.4,343.9 496.6,288.6 	"/>
	<polygon class="st2" points="245.8,288.6 261.9,343.9 318.6,328.3 292.2,287.7 	"/>
	<polygon class="st2" points="315.5,219.1 299.7,243 355.9,245.5 354,185 	"/>
	<polygon class="st2" points="426.8,219.1 387.8,184.2 386.4,245.5 442.6,243 	"/>
	<polygon class="st2" points="318.6,328.3 352.5,311.8 323.3,289 	"/>
	<polygon class="st2" points="389.8,311.8 423.7,328.3 419,289 	"/>
</g>
<g>
	<polygon class="st3" points="423.7,328.3 389.8,311.8 392.5,333.9 392.2,343.2 	"/>
	<polygon class="st3" points="318.6,328.3 350.1,343.2 349.9,333.9 352.5,311.8 	"/>
</g>
<polygon class="st4" points="350.7,274.4 322.5,266.1 342.4,257 "/>
<polygon class="st4" points="391.6,274.4 399.9,257 419.9,266.1 "/>
<g>
	<polygon class="st5" points="318.6,328.3 323.5,287.7 292.2,288.6 	"/>
	<polygon class="st5" points="418.8,287.7 423.7,328.3 450.2,288.6 	"/>
	<polygon class="st5" points="442.6,243 386.4,245.5 391.6,274.4 399.9,257 419.9,266.1 	"/>
	<polygon class="st5" points="322.5,266.1 342.4,257 350.7,274.4 355.9,245.5 299.7,243 	"/>
</g>
<g>
	<polygon class="st6" points="299.7,243 323.3,289 322.5,266.1 	"/>
	<polygon class="st6" points="419.9,266.1 419,289 442.6,243 	"/>
	<polygon class="st6" points="355.9,245.5 350.7,274.4 357.3,308.5 358.8,263.6 	"/>
	<polygon class="st6" points="386.4,245.5 383.8,263.5 385,308.5 391.6,274.4 	"/>
</g>
<polygon class="st7" points="391.6,274.4 385,308.5 389.8,311.8 419,289 419.9,266.1 "/>
<polygon class="st7" points="322.5,266.1 323.3,289 352.5,311.8 357.3,308.5 350.7,274.4 "/>
<polygon class="st8" points="392.2,343.2 392.5,333.9 390,331.7 352.3,331.7 349.9,333.9 350.1,343.2 318.6,328.3 329.6,337.3 
	352,352.8 390.3,352.8 412.7,337.3 423.7,328.3 "/>
<polygon class="st9" points="389.8,311.8 385,308.5 357.3,308.5 352.5,311.8 349.9,333.9 352.3,331.7 390,331.7 392.5,333.9 "/>
<g>
	<polygon class="st10" points="490.2,195.1 498.6,154.3 486,116.4 389.8,187.8 426.8,219.1 479.1,234.4 490.6,220.9 485.6,217.3 
		493.6,210 487.5,205.2 495.5,199.1 	"/>
	<polygon class="st10" points="243.7,154.3 252.2,195.1 246.8,199.1 254.8,205.2 248.7,210 256.7,217.3 251.7,220.9 263.2,234.4 
		315.5,219.1 352.5,187.8 256.3,116.4 	"/>
</g>
<polygon class="st7" points="479.1,234.4 426.8,219.1 442.6,243 419,289 450.2,288.6 496.6,288.6 "/>
<polygon class="st7" points="315.5,219.1 263.2,234.4 245.8,288.6 292.2,288.6 323.3,289 299.7,243 "/>
<polygon class="st7" points="386.4,245.5 389.8,187.8 404.9,146.7 337.4,146.7 352.5,187.8 355.9,245.5 357.2,263.7 357.3,308.5 
	385,308.5 385.1,263.7 "/>
</svg>
