<?xml version="1.0" encoding="utf-8"?>
<!-- Generator: Adobe Illustrator 22.0.1, SVG Export Plug-In . SVG Version: 6.00 Build 0)  -->
<svg version="1.1" id="Layer_1" xmlns:ev="http://www.w3.org/2001/xml-events"
	 xmlns="http://www.w3.org/2000/svg" xmlns:xlink="http://www.w3.org/1999/xlink" x="0px" y="0px" viewBox="0 0 422.5 318.6"
	 style="enable-background:new 0 0 422.5 318.6;" xml:space="preserve">
<style type="text/css">
	.st0{fill:#F6851B;stroke:#F6851B;stroke-linecap:round;stroke-linejoin:round;}
	.st1{font-family:'Roboto-Regular';}
	.st2{font-size:12px;}
	.st3{fill:#E2761B;stroke:#E2761B;stroke-linecap:round;stroke-linejoin:round;}
	.st4{fill:#CD6116;stroke:#CD6116;stroke-linecap:round;stroke-linejoin:round;}
	.st5{fill:#161616;stroke:#161616;stroke-linecap:round;stroke-linejoin:round;}
	.st6{fill:#763D16;stroke:#763D16;stroke-linecap:round;stroke-linejoin:round;}
	.st7{fill:#D7C1B3;stroke:#D7C1B3;stroke-linecap:round;stroke-linejoin:round;}
	.st8{fill:#C0AD9E;stroke:#C0AD9E;stroke-linecap:round;stroke-linejoin:round;}
	.st9{fill:#E4761B;stroke:#E4761B;stroke-linecap:round;stroke-linejoin:round;}
	.st10{fill:#233447;stroke:#233447;stroke-linecap:round;stroke-linejoin:round;}
	.st11{fill:#E4751F;stroke:#E4751F;stroke-linecap:round;stroke-linejoin:round;}
</style>
<g>
	<rect x="313" y="38.1" class="st0" width="25.5" height="25.5"/>
	<text transform="matrix(1 0 0 1 350.6757 54.3657)" class="st1 st2">#F6851B</text>
</g>
<g>
	<rect x="313" y="74.7" class="st3" width="25.5" height="25.5"/>
	<text transform="matrix(1 0 0 1 350.6757 90.9328)" class="st1 st2">#E2761B</text>
</g>
<g>
	<rect x="313" y="111.3" class="st4" width="25.5" height="25.5"/>
	<text transform="matrix(1 0 0 1 350.6757 127.5)" class="st1 st2">#CD6116</text>
</g>
<g>
	<rect x="313" y="147.8" class="st5" width="25.5" height="25.5"/>
	<text transform="matrix(1 0 0 1 350.6757 164.067)" class="st1 st2">#161616</text>
</g>
<g>
	<rect x="313" y="184.4" class="st6" width="25.5" height="25.5"/>
	<text transform="matrix(1 0 0 1 350.6757 200.6343)" class="st1 st2">#763D16</text>
</g>
<g>
	<rect x="313" y="221" class="st7" width="25.5" height="25.5"/>
	<text transform="matrix(1 0 0 1 350.6757 237.2017)" class="st1 st2">#D7C1B3</text>
</g>
<g>
	<rect x="313" y="257.5" class="st8" width="25.5" height="25.5"/>
	<text transform="matrix(1 0 0 1 350.6757 273.7686)" class="st1 st2">#C0AD9E</text>
</g>
<polygon class="st3" points="273.6,40.5 174,114.4 192.5,70.8 "/>
<g>
	<polygon class="st9" points="43.9,40.5 142.6,115.1 125,70.8 	"/>
	<polygon class="st9" points="237.8,211.8 211.3,252.4 268,268 284.2,212.7 	"/>
	<polygon class="st9" points="33.4,212.7 49.5,268 106.2,252.4 79.8,211.8 	"/>
	<polygon class="st9" points="103.1,143.2 87.3,167.1 143.5,169.6 141.6,109.1 	"/>
	<polygon class="st9" points="214.4,143.2 175.3,108.4 174,169.6 230.2,167.1 	"/>
	<polygon class="st9" points="106.2,252.4 140.1,235.9 110.9,213.1 	"/>
	<polygon class="st9" points="177.4,235.9 211.3,252.4 206.6,213.1 	"/>
</g>
<g>
	<polygon class="st7" points="211.3,252.4 177.4,235.9 180.1,258 179.8,267.3 	"/>
	<polygon class="st7" points="106.2,252.4 137.7,267.3 137.5,258 140.1,235.9 	"/>
</g>
<polygon class="st10" points="138.3,198.5 110.1,190.2 130,181.1 "/>
<polygon class="st10" points="179.2,198.5 187.5,181.1 207.5,190.2 "/>
<g>
	<polygon class="st4" points="106.2,252.4 111.1,211.8 79.8,212.7 	"/>
	<polygon class="st4" points="206.4,211.8 211.3,252.4 237.8,212.7 	"/>
	<polygon class="st4" points="230.2,167.1 174,169.6 179.2,198.5 187.5,181.1 207.5,190.2 	"/>
	<polygon class="st4" points="110.1,190.2 130,181.1 138.3,198.5 143.5,169.6 87.3,167.1 	"/>
</g>
<g>
	<polygon class="st11" points="87.3,167.1 110.9,213.1 110.1,190.2 	"/>
	<polygon class="st11" points="207.5,190.2 206.6,213.1 230.2,167.1 	"/>
	<polygon class="st11" points="143.5,169.6 138.3,198.5 144.9,232.6 146.3,187.7 	"/>
	<polygon class="st11" points="174,169.6 171.3,187.6 172.6,232.6 179.2,198.5 	"/>
</g>
<polygon class="st0" points="179.2,198.5 172.6,232.6 177.4,235.9 206.6,213.1 207.5,190.2 "/>
<polygon class="st0" points="110.1,190.2 110.9,213.1 140.1,235.9 144.9,232.6 138.3,198.5 "/>
<polygon class="st8" points="179.8,267.3 180.1,258 177.6,255.8 139.9,255.8 137.5,258 137.7,267.3 106.2,252.4 117.2,261.4 
	139.6,276.9 177.9,276.9 200.3,261.4 211.3,252.4 "/>
<polygon class="st5" points="177.4,235.9 172.6,232.6 144.9,232.6 140.1,235.9 137.5,258 139.9,255.8 177.6,255.8 180.1,258 "/>
<g>
	<polygon class="st6" points="277.8,119.2 286.2,78.4 273.6,40.5 177.4,111.9 214.4,143.2 266.7,158.5 278.2,145 273.2,141.4 
		281.2,134.1 275.1,129.3 283.1,123.2 	"/>
	<polygon class="st6" points="31.3,78.4 39.8,119.2 34.4,123.2 42.4,129.3 36.3,134.1 44.3,141.4 39.3,145 50.8,158.5 103.1,143.2 
		140.1,111.9 43.9,40.5 	"/>
</g>
<polygon class="st0" points="266.7,158.5 214.4,143.2 230.2,167.1 206.6,213.1 237.8,212.7 284.2,212.7 "/>
<polygon class="st0" points="103.1,143.2 50.8,158.5 33.4,212.7 79.8,212.7 110.9,213.1 87.3,167.1 "/>
<polygon class="st0" points="174,169.6 177.4,111.9 192.5,70.8 125,70.8 140.1,111.9 143.5,169.6 144.8,187.8 144.9,232.6 
	172.6,232.6 172.7,187.8 "/>
</svg>
