<?xml version="1.0" encoding="utf-8"?>
<!-- Generator: Adobe Illustrator 27.0.1, SVG Export Plug-In . SVG Version: 6.00 Build 0)  -->
<svg version="1.1" xmlns="http://www.w3.org/2000/svg" xmlns:xlink="http://www.w3.org/1999/xlink" x="0px" y="0px"
	 viewBox="0 0 458.5 367.2" style="enable-background:new 0 0 458.5 367.2;" xml:space="preserve">
<style type="text/css">
	.st0{display:none;}
	.st1{fill:#F5841F;}
	.st2{fill:#E27625;}
	.st3{fill:#D7C1B3;}
	.st4{fill:#2F343B;}
	.st5{fill:#CC6228;}
	.st6{fill:#C0AD9E;}
	.st7{fill:#763E1A;}
	.st8{fill:#161616;}
</style>
<g id="bg_x28_do_not_export_x29_" class="st0">
</g>
<g id="MM_Head_background__x28_Do_not_edit_x29_">
	<path class="st1" d="M299.3,73.5L250,91.7l0,0l0,0h-41l0,0l-49.2-18.3l0.3,0.2l-0.3-0.2l-7.7,22.8l5.1,24.6l-3.3,2.4l4.9,3.7
		l-3.7,2.8l4.8,4.4l-3,2.2l7,8.1l-10.6,32.6h0l0,0l9.8,33.3l34.4-9.4l0,0l0,0v0l0,0l0,0v0l0,0l0,0l0,0l0,0l6.7,5.4l13.6,9.3h23.3
		l13.6-9.3l6.6-5.5l0,0v0l0,0v0l0,0l0,0l0,0v0l0-0.1l0,0.1l34.4,9.4l9.9-33.3l0,0h0l-10.6-32.6 M295.1,144.5l7-8.1l-3-2.2l4.8-4.4
		l-3.7-2.8l4.8-3.7l-3.2-2.4l5.1-24.6l-7.7-22.8"/>
</g>
<g id="Logos">
	<g>
		<g>
			<polygon class="st2" points="299.3,73.5 238.8,117.9 250,91.7 			"/>
			<polygon class="st2" points="159.8,73.5 219.7,118.3 209,91.7 			"/>
			<polygon class="st2" points="277.5,176.6 261.4,201 295.8,210.4 305.7,177.1 			"/>
			<polygon class="st2" points="153.4,177.1 163.2,210.4 197.6,201 181.6,176.6 			"/>
			<polygon class="st2" points="195.7,135.3 186.2,149.7 220.3,151.2 219.1,114.7 			"/>
			<polygon class="st2" points="263.3,135.3 239.6,114.3 238.8,151.2 272.9,149.7 			"/>
			<polygon class="st2" points="197.6,201 218.2,191.1 200.5,177.3 			"/>
			<polygon class="st2" points="240.8,191.1 261.4,201 258.6,177.3 			"/>
			<polygon class="st3" points="261.4,201 240.8,191.1 242.5,204.4 242.3,210 			"/>
			<polygon class="st3" points="197.6,201 216.7,210 216.6,204.4 218.2,191.1 			"/>
			<polygon class="st4" points="217.1,168.6 200,163.6 212.1,158.1 			"/>
			<polygon class="st4" points="242,168.6 247,158.1 259.1,163.6 			"/>
			<polygon class="st5" points="197.6,201 200.6,176.6 181.6,177.1 			"/>
			<polygon class="st5" points="258.5,176.6 261.4,201 277.5,177.1 			"/>
			<polygon class="st5" points="272.9,149.7 238.8,151.2 242,168.6 247,158.1 259.1,163.6 			"/>
			<polygon class="st5" points="200,163.6 212.1,158.1 217.1,168.6 220.3,151.2 186.2,149.7 			"/>
			<polygon class="st2" points="186.2,149.7 200.5,177.3 200,163.6 			"/>
			<polygon class="st2" points="259.1,163.6 258.6,177.3 272.9,149.7 			"/>
			<polygon class="st2" points="220.3,151.2 217.1,168.6 221.1,189.1 222,162 			"/>
			<polygon class="st2" points="238.8,151.2 237.1,162 238,189.1 242,168.6 			"/>
			<polygon class="st1" points="242,168.6 238,189.1 240.8,191.1 258.6,177.3 259.1,163.6 			"/>
			<polygon class="st1" points="200,163.6 200.5,177.3 218.2,191.1 221.1,189.1 217.1,168.6 			"/>
			<polygon class="st6" points="242.3,210 242.5,204.4 241,203.1 218.1,203.1 216.6,204.4 216.7,210 197.6,201 204.3,206.5 
				217.9,215.8 241.1,215.8 254.8,206.5 261.4,201 			"/>
			<polygon class="st4" points="240.8,191.1 238,189.1 221.1,189.1 218.2,191.1 216.6,204.4 218.1,203.1 241,203.1 242.5,204.4 			
				"/>
			<polygon class="st7" points="301.8,120.8 306.9,96.3 299.3,73.5 240.8,116.4 263.3,135.3 295.1,144.5 302.1,136.4 299,134.2 
				303.9,129.8 300.2,126.9 305,123.3 			"/>
			<polygon class="st7" points="152.1,96.3 157.3,120.8 154,123.3 158.9,126.9 155.2,129.8 160,134.2 157,136.4 164,144.5 
				195.7,135.3 218.2,116.4 159.8,73.5 			"/>
			<polygon class="st1" points="295.1,144.5 263.3,135.3 272.9,149.7 258.6,177.3 277.5,177.1 305.7,177.1 			"/>
			<polygon class="st1" points="195.7,135.3 164,144.5 153.4,177.1 181.6,177.1 200.5,177.3 186.2,149.7 			"/>
			<polygon class="st1" points="238.8,151.2 240.8,116.4 250,91.7 209,91.7 218.2,116.4 220.3,151.2 221,162.1 221.1,189.1 
				238,189.1 238,162.1 			"/>
		</g>
		<g>
			<path class="st8" d="M334.9,274.4c-2.2-1.5-4.7-2.5-7-3.8c-1.5-0.9-3.1-1.6-4.4-2.7c-2.2-1.8-1.8-5.4,0.6-7
				c3.3-2.2,8.9-1,9.5,3.6c0,0.1,0.1,0.2,0.2,0.2h5.1c0.1,0,0.2-0.1,0.2-0.2c-0.3-3.2-1.5-5.8-3.7-7.5c-2.1-1.6-4.6-2.5-7.2-2.5
				c-13.4,0-14.6,14.1-7.4,18.6c0.8,0.5,7.9,4.1,10.4,5.6c2.5,1.5,3.3,4.4,2.2,6.6c-1,2-3.5,3.4-6.1,3.3c-2.8-0.2-5-1.7-5.7-4
				c-0.1-0.4-0.2-1.2-0.2-1.6c0-0.1-0.1-0.2-0.2-0.2h-5.5c-0.1,0-0.2,0.1-0.2,0.2c0,4,1,6.2,3.7,8.2c2.5,1.9,5.3,2.7,8.1,2.7
				c7.5,0,11.4-4.2,12.1-8.6C340,280.9,338.7,277,334.9,274.4z"/>
			<path class="st8" d="M100,255.2h-8.3c-0.1,0-0.2,0.1-0.2,0.1L87,270.1c-0.1,0.2-0.3,0.2-0.4,0l-4.5-14.8c0-0.1-0.1-0.1-0.2-0.1
				h-8.4c-0.1,0-0.2,0.1-0.2,0.2v37.9c0,0.1,0.1,0.2,0.2,0.2h5.5c0.1,0,0.2-0.1,0.2-0.2v-28.8c0-0.2,0.3-0.3,0.4-0.1l4.5,14.9
				l0.3,1.1c0,0.1,0.1,0.1,0.2,0.1h4.2c0.1,0,0.2-0.1,0.2-0.1l0.3-1.1l4.5-14.9c0.1-0.2,0.4-0.2,0.4,0.1v28.8c0,0.1,0.1,0.2,0.2,0.2
				h5.5c0.1,0,0.2-0.1,0.2-0.2v-37.9C100.2,255.3,100.1,255.2,100,255.2z"/>
			<path class="st8" d="M250.9,255.2c-0.1,0-0.2,0.1-0.2,0.1l-4.5,14.8c-0.1,0.2-0.3,0.2-0.4,0l-4.5-14.8c0-0.1-0.1-0.1-0.2-0.1
				h-8.3c-0.1,0-0.2,0.1-0.2,0.2v37.9c0,0.1,0.1,0.2,0.2,0.2h5.5c0.1,0,0.2-0.1,0.2-0.2v-28.8c0-0.2,0.3-0.3,0.4-0.1l4.5,14.9
				l0.3,1.1c0,0.1,0.1,0.1,0.2,0.1h4.2c0.1,0,0.2-0.1,0.2-0.1l0.3-1.1l4.5-14.9c0.1-0.2,0.4-0.2,0.4,0.1v28.8c0,0.1,0.1,0.2,0.2,0.2
				h5.5c0.1,0,0.2-0.1,0.2-0.2v-37.9c0-0.1-0.1-0.2-0.2-0.2H250.9z"/>
			<path class="st8" d="M180.2,255.2h-25.9c-0.1,0-0.2,0.1-0.2,0.2v4.7c0,0.1,0.1,0.2,0.2,0.2h10v33c0,0.1,0.1,0.2,0.2,0.2h5.5
				c0.1,0,0.2-0.1,0.2-0.2v-33h10c0.1,0,0.2-0.1,0.2-0.2v-4.7C180.4,255.3,180.3,255.2,180.2,255.2z"/>
			<path class="st8" d="M199.4,276.7l4-14.8c0.1-0.2,0.3-0.2,0.4,0l4,14.8c0,0.1-0.1,0.3-0.2,0.3h-8
				C199.5,277,199.4,276.8,199.4,276.7z M212.5,293.5h5c0.1,0,0.2-0.1,0.2-0.3l-10.3-38c0-0.1-0.1-0.1-0.2-0.1h-7.2
				c-0.1,0-0.2,0.1-0.2,0.1l-10.3,38c0,0.1,0.1,0.3,0.2,0.3h5c0.1,0,0.2-0.1,0.2-0.1l3-11.1c0-0.1,0.1-0.1,0.2-0.1h11
				c0.1,0,0.2,0.1,0.2,0.1l3,11.1C212.4,293.4,212.5,293.5,212.5,293.5z"/>
			<path class="st8" d="M284.5,276.7l4-14.8c0.1-0.2,0.3-0.2,0.4,0l4,14.8c0,0.1-0.1,0.3-0.2,0.3h-8
				C284.6,277,284.5,276.8,284.5,276.7z M297.6,293.5h5c0.1,0,0.2-0.1,0.2-0.3l-10.3-38c0-0.1-0.1-0.1-0.2-0.1h-7.2
				c-0.1,0-0.2,0.1-0.2,0.1l-10.3,38c0,0.1,0.1,0.3,0.2,0.3h5c0.1,0,0.2-0.1,0.2-0.1l3-11.1c0-0.1,0.1-0.1,0.2-0.1h11
				c0.1,0,0.2,0.1,0.2,0.1l3,11.1C297.5,293.4,297.5,293.5,297.6,293.5z"/>
			<path class="st8" d="M122.5,287.9v-11.8c0-0.1,0.1-0.2,0.2-0.2h14.6c0.1,0,0.2-0.1,0.2-0.2V271c0-0.1-0.1-0.2-0.2-0.2h-14.6
				c-0.1,0-0.2-0.1-0.2-0.2v-10c0-0.1,0.1-0.2,0.2-0.2h16.6c0.1,0,0.2-0.1,0.2-0.2v-4.7c0-0.1-0.1-0.2-0.2-0.2h-22.5
				c-0.1,0-0.2,0.1-0.2,0.2v37.9c0,0.1,0.1,0.2,0.2,0.2H140c0.1,0,0.2-0.1,0.2-0.2v-5c0-0.1-0.1-0.2-0.2-0.2h-17.3
				C122.6,288.1,122.5,288,122.5,287.9z"/>
			<path class="st8" d="M385,293.1l-19-19.6c-0.1-0.1-0.1-0.2,0-0.3l17.1-17.7c0.1-0.1,0-0.3-0.1-0.3h-7c-0.1,0-0.1,0-0.1,0.1
				l-14.5,15c-0.1,0.1-0.3,0-0.3-0.1v-14.8c0-0.1-0.1-0.2-0.2-0.2h-5.5c-0.1,0-0.2,0.1-0.2,0.2v37.9c0,0.1,0.1,0.2,0.2,0.2h5.5
				c0.1,0,0.2-0.1,0.2-0.2v-16.7c0-0.2,0.2-0.3,0.3-0.1l16.4,16.9c0,0,0.1,0.1,0.1,0.1h7C385,293.5,385.1,293.2,385,293.1z"/>
		</g>
	</g>
</g>
</svg>
