<?xml version="1.0" encoding="UTF-8"?><svg xmlns="http://www.w3.org/2000/svg" xmlns:xlink="http://www.w3.org/1999/xlink" viewBox="0 0 318.6 318.6"><defs><style>.cls-1{fill:#313131;stroke:#313131;}.cls-1,.cls-2,.cls-3,.cls-4,.cls-5,.cls-6,.cls-7,.cls-8,.cls-9{stroke-linecap:round;stroke-linejoin:round;}.cls-2{fill:#9b9b9b;stroke:#9b9b9b;}.cls-3{fill:#797979;stroke:#797979;}.cls-4{fill:#161616;stroke:#161616;}.cls-5{fill:#4a4a4a;stroke:#4a4a4a;}.cls-6{fill:#8d8d8d;stroke:#8d8d8d;}.cls-7{fill:#8c8c8c;stroke:#8c8c8c;}.cls-8{fill:#b1b1b1;stroke:#b1b1b1;}.cls-9{fill:#c6c6c6;stroke:#c6c6c6;}.cls-10{fill:url(#linear-gradient);}.cls-11{fill:url(#linear-gradient-3);}.cls-12{fill:url(#linear-gradient-2);}.cls-13{fill:url(#radial-gradient);}</style><linearGradient id="linear-gradient" x1="31.91" y1="177.8" x2="277" y2="177.8" gradientUnits="userSpaceOnUse"><stop offset=".02" stop-color="#010103"/><stop offset=".1" stop-color="#0f0f11"/><stop offset=".27" stop-color="#363637"/><stop offset=".5" stop-color="#757575"/><stop offset=".52" stop-color="#7a7a7a"/><stop offset=".66" stop-color="#5d5d5d"/><stop offset=".97" stop-color="#141416"/><stop offset="1" stop-color="#0d0d0f"/></linearGradient><linearGradient id="linear-gradient-2" x1="36.26" y1="176.57" x2="272.98" y2="176.57" gradientUnits="userSpaceOnUse"><stop offset=".02" stop-color="#010103"/><stop offset=".08" stop-color="#0f0f11"/><stop offset=".19" stop-color="#363638"/><stop offset=".35" stop-color="#747477"/><stop offset=".52" stop-color="#c0c1c5"/><stop offset=".61" stop-color="#a3a4a8"/><stop offset=".8" stop-color="#5b5b5e"/><stop offset="1" stop-color="#0d0d0f"/></linearGradient><linearGradient id="linear-gradient-3" x1="62.78" y1="170.65" x2="248.52" y2="170.65" gradientUnits="userSpaceOnUse"><stop offset=".02" stop-color="#a1a1a1"/><stop offset=".1" stop-color="#929292"/><stop offset=".25" stop-color="#6b6d6c"/><stop offset=".47" stop-color="#2c3130"/><stop offset=".52" stop-color="#1c2120"/><stop offset=".63" stop-color="#383c3b"/><stop offset=".87" stop-color="#818282"/><stop offset=".96" stop-color="#a0a0a0"/></linearGradient><radialGradient id="radial-gradient" cx="157.28" cy="200.2" fx="157.28" fy="200.2" r="87.43" gradientUnits="userSpaceOnUse"><stop offset=".4" stop-color="#64557d"/><stop offset=".5" stop-color="#804a6a"/><stop offset=".74" stop-color="#c92e3a"/><stop offset=".9" stop-color="#ff1a17"/><stop offset="1" stop-color="#ffe517"/></radialGradient></defs><g id="Layer_1"><polygon class="cls-7" points="274.1 35.5 174.6 109.4 193 65.8 274.1 35.5"/><polygon class="cls-6" points="44.4 35.5 143.1 110.1 125.6 65.8 44.4 35.5"/><polygon class="cls-6" points="238.3 206.8 211.8 247.4 268.5 263 284.8 207.7 238.3 206.8"/><polygon class="cls-6" points="33.9 207.7 50.1 263 106.8 247.4 80.3 206.8 33.9 207.7"/><polygon class="cls-6" points="103.6 138.2 87.8 162.1 144.1 164.6 142.1 104.1 103.6 138.2"/><polygon class="cls-6" points="214.9 138.2 175.9 103.4 174.6 164.6 230.8 162.1 214.9 138.2"/><polygon class="cls-6" points="106.8 247.4 140.6 230.9 111.4 208.1 106.8 247.4"/><polygon class="cls-6" points="177.9 230.9 211.8 247.4 207.1 208.1 177.9 230.9"/><polygon class="cls-9" points="211.8 247.4 177.9 230.9 180.6 253 180.3 262.3 211.8 247.4"/><polygon class="cls-9" points="106.8 247.4 138.3 262.3 138.1 253 140.6 230.9 106.8 247.4"/><polygon class="cls-1" points="138.8 193.5 110.6 185.2 130.5 176.1 138.8 193.5"/><polygon class="cls-1" points="179.7 193.5 188 176.1 208 185.2 179.7 193.5"/><polygon class="cls-3" points="106.8 247.4 111.6 206.8 80.3 207.7 106.8 247.4"/><polygon class="cls-3" points="207 206.8 211.8 247.4 238.3 207.7 207 206.8"/><polygon class="cls-3" points="230.8 162.1 174.6 164.6 179.8 193.5 188.1 176.1 208.1 185.2 230.8 162.1"/><polygon class="cls-3" points="110.6 185.2 130.6 176.1 138.8 193.5 144.1 164.6 87.8 162.1 110.6 185.2"/><polygon class="cls-6" points="87.8 162.1 111.4 208.1 110.6 185.2 87.8 162.1"/><polygon class="cls-6" points="208.1 185.2 207.1 208.1 230.8 162.1 208.1 185.2"/><polygon class="cls-6" points="144.1 164.6 138.8 193.5 145.4 227.6 146.9 182.7 144.1 164.6"/><polygon class="cls-6" points="174.6 164.6 171.9 182.6 173.1 227.6 179.8 193.5 174.6 164.6"/><polygon class="cls-2" points="179.8 193.5 173.1 227.6 177.9 230.9 207.1 208.1 208.1 185.2 179.8 193.5"/><polygon class="cls-2" points="110.6 185.2 111.4 208.1 140.6 230.9 145.4 227.6 138.8 193.5 110.6 185.2"/><polygon class="cls-8" points="180.3 262.3 180.6 253 178.1 250.8 140.4 250.8 138.1 253 138.3 262.3 106.8 247.4 117.8 256.4 140.1 271.9 178.4 271.9 200.8 256.4 211.8 247.4 180.3 262.3"/><polygon class="cls-4" points="177.9 230.9 173.1 227.6 145.4 227.6 140.6 230.9 138.1 253 140.4 250.8 178.1 250.8 180.6 253 177.9 230.9"/><polygon class="cls-5" points="278.3 114.2 286.8 73.4 274.1 35.5 177.9 106.9 214.9 138.2 267.2 153.5 278.8 140 273.8 136.4 281.8 129.1 275.6 124.3 283.6 118.2 278.3 114.2"/><polygon class="cls-5" points="31.8 73.4 40.3 114.2 34.9 118.2 42.9 124.3 36.8 129.1 44.8 136.4 39.8 140 51.3 153.5 103.6 138.2 140.6 106.9 44.4 35.5 31.8 73.4"/><polygon class="cls-2" points="267.2 153.5 214.9 138.2 230.8 162.1 207.1 208.1 238.3 207.7 284.8 207.7 267.2 153.5"/><polygon class="cls-2" points="103.6 138.2 51.3 153.5 33.9 207.7 80.3 207.7 111.4 208.1 87.8 162.1 103.6 138.2"/><polygon class="cls-2" points="174.6 164.6 177.9 106.9 193.1 65.8 125.6 65.8 140.6 106.9 144.1 164.6 145.3 182.8 145.4 227.6 173.1 227.6 173.3 182.8 174.6 164.6"/></g><g id="Layer_2"><path class="cls-10" d="m159.11,190.18l12.92,2.88,7.21,16.14s17.87,1.48,46.92,1.22,38.01,2.59,40.19-1.22c2.17-3.81,1.9-22.62-1.9-38.31-3.8-15.68-14.42-25.67-18.47-26.14-34.77-3.97-80.83,5.38-87.68,5.38-6.85,0-50.8-8.73-85.57-4.76-4.05.46-14.67,10.45-18.47,26.14s-4.07,34.49-1.9,38.31c2.17,3.81,11.14.97,40.19,1.22s46.92-1.22,46.92-1.22l7.21-16.14,12.44-3.5Z"/><path class="cls-12" d="m159.12,187.45l14.41,3.41,6,13.3s16.29,1.3,44.35,1.07c28.06-.22,36.72,2.28,38.82-1.07,2.1-3.35,1.84-19.87-1.84-33.65-3.67-13.78-13.93-22.55-17.84-22.96-33.58-3.49-78.07,4.72-84.69,4.72-6.61,0-49.06-7.67-82.65-4.18-3.91.41-14.17,9.18-17.84,22.96s-3.94,30.3-1.84,33.65,10.76.85,38.82,1.07,44.35-1.07,44.35-1.07l6-13.3,13.94-3.95Z"/><path class="cls-11" d="m233.21,180.95H84.68c-9.19,0-10.61-20.6,0-20.6h148.53c9.19,0,12.73,20.6,0,20.6Z"/><path class="cls-13" d="m228.38,178.04H87.37c-8.73,0-10.07-14.77,0-14.77h141.01c8.73,0,12.09,14.77,0,14.77Z"/></g></svg>